<svg xmlns="http://www.w3.org/2000/svg" width="1800" height="1180" viewBox="0 0 1800 1180" fill="none">
  <defs>
    <linearGradient id="canvas" x1="0" y1="0" x2="0" y2="1180" gradientUnits="userSpaceOnUse">
      <stop stop-color="#fbf8ef"/><stop offset="1" stop-color="#f5f1e8"/>
    </linearGradient>
    <linearGradient id="hero" x1="0" y1="0" x2="1" y2="1">
      <stop stop-color="#102b27"/><stop offset="0.55" stop-color="#17493f"/><stop offset="1" stop-color="#0c1d1b"/>
    </linearGradient>
    <filter id="s" x="-20" y="-20" width="1900" height="1260" filterUnits="userSpaceOnUse"><feDropShadow dx="0" dy="18" stdDeviation="22" flood-color="#102b27" flood-opacity="0.14"/></filter>
  </defs>
  <rect width="1800" height="1180" fill="url(#canvas)"/>
  <text x="56" y="64" fill="#102b27" font-family="Microsoft YaHei UI, Segoe UI, sans-serif" font-size="34" font-weight="900">Responsive Figma Reference Board</text>
  <text x="56" y="96" fill="#6b6b6b" font-family="Cascadia Mono, Consolas, monospace" font-size="14">Desktop 1440 · Tablet 834 · Mobile 390 · Source: app.py CUSTOM_CSS</text>

  <g transform="translate(56 132)" filter="url(#s)">
    <text x="0" y="-18" fill="#1a6b5a" font-family="Cascadia Mono" font-size="15" font-weight="800">DESKTOP / 1440x900 crop</text>
    <rect width="980" height="735" rx="28" fill="#fffdf8" stroke="#d8d2c5"/>
    <rect width="230" height="735" rx="28" fill="#fffdf8" stroke="#e0ded8"/>
    <text x="28" y="44" fill="#1a6b5a" font-family="Microsoft YaHei UI" font-size="18" font-weight="800">黑土区水蚀智能预测与证据化评估平台</text>
    <rect x="260" y="34" width="700" height="150" rx="24" fill="url(#hero)"/>
    <text x="290" y="92" fill="#f7f4e9" font-family="Microsoft YaHei UI" font-size="34" font-weight="900">黑土区水蚀智能预测与证据化评估平台</text>
    <text x="292" y="126" fill="#dac7a5" font-family="Cascadia Mono" font-size="12">P0 -> P1 -> P2 -> P3 evidence chain</text>
    <rect x="260" y="208" width="450" height="170" rx="20" fill="#fffdf8" stroke="#d8e7df"/>
    <rect x="730" y="208" width="230" height="170" rx="20" fill="#fffdf8" stroke="#d8e7df"/>
    <g transform="translate(280 238)">
      <rect width="96" height="78" rx="16" fill="#eaf4ef" stroke="#1a6b5a"/><text x="18" y="31" fill="#b8956a" font-family="Cascadia Mono" font-size="12" font-weight="800">P0</text><text x="18" y="55" fill="#173d36" font-family="Microsoft YaHei UI" font-size="13" font-weight="800">数据门禁</text>
      <rect x="108" width="96" height="78" rx="16" fill="#fffdf8" stroke="#e7e1d4"/><text x="126" y="31" fill="#b8956a" font-family="Cascadia Mono" font-size="12" font-weight="800">P1</text><text x="126" y="55" fill="#173d36" font-family="Microsoft YaHei UI" font-size="13" font-weight="800">模型排行</text>
      <rect x="216" width="96" height="78" rx="16" fill="#fffdf8" stroke="#e7e1d4"/><text x="234" y="31" fill="#b8956a" font-family="Cascadia Mono" font-size="12" font-weight="800">P2</text><text x="234" y="55" fill="#173d36" font-family="Microsoft YaHei UI" font-size="13" font-weight="800">解释空间</text>
      <rect x="324" width="96" height="78" rx="16" fill="#fffdf8" stroke="#e7e1d4"/><text x="342" y="31" fill="#b8956a" font-family="Cascadia Mono" font-size="12" font-weight="800">P3</text><text x="342" y="55" fill="#173d36" font-family="Microsoft YaHei UI" font-size="13" font-weight="800">交付归档</text>
    </g>
    <rect x="260" y="404" width="960" height="110" rx="18" fill="#fffdf8" stroke="#d8e7df"/>
    <text x="284" y="438" fill="#173d36" font-family="Microsoft YaHei UI" font-size="16" font-weight="800">P0-P3 门禁工作台 · 4 columns</text>
    <rect x="284" y="460" width="190" height="56" rx="14" fill="#fff3e0"/><text x="306" y="495" fill="#e07b39" font-family="Cascadia Mono" font-size="12" font-weight="800">PASS_WITH_RISKS</text>
  </g>

  <g transform="translate(1110 132)" filter="url(#s)">
    <text x="0" y="-18" fill="#1a6b5a" font-family="Cascadia Mono" font-size="15" font-weight="800">TABLET / 834x960 crop</text>
    <rect width="540" height="735" rx="28" fill="#fffdf8" stroke="#d8d2c5"/>
    <rect x="28" y="34" width="484" height="132" rx="22" fill="url(#hero)"/>
    <text x="54" y="84" fill="#f7f4e9" font-family="Microsoft YaHei UI" font-size="27" font-weight="900">证据化评估平台</text>
    <text x="54" y="118" fill="#dac7a5" font-family="Cascadia Mono" font-size="12">single column command grid</text>
    <rect x="28" y="194" width="484" height="174" rx="20" fill="#fffdf8" stroke="#d8e7df"/>
    <text x="52" y="228" fill="#173d36" font-family="Microsoft YaHei UI" font-size="15" font-weight="800">Stage rail · 2 columns</text>
    <rect x="52" y="248" width="210" height="64" rx="16" fill="#eaf4ef" stroke="#1a6b5a"/><text x="76" y="286" fill="#173d36" font-family="Microsoft YaHei UI" font-size="13" font-weight="800">P0 数据门禁</text>
    <rect x="278" y="248" width="210" height="64" rx="16" fill="#fffdf8" stroke="#e7e1d4"/><text x="302" y="286" fill="#173d36" font-family="Microsoft YaHei UI" font-size="13" font-weight="800">P1 模型排行</text>
    <rect x="52" y="430" width="484" height="160" rx="20" fill="#fffdf8" stroke="#d8e7df"/>
    <text x="76" y="464" fill="#173d36" font-family="Microsoft YaHei UI" font-size="15" font-weight="800">Gate board · 2 columns</text>
  </g>

  <g transform="translate(1110 910)" filter="url(#s)">
    <text x="0" y="-18" fill="#1a6b5a" font-family="Cascadia Mono" font-size="15" font-weight="800">MOBILE / 390x844 crop</text>
    <rect width="390" height="132" rx="24" fill="#fffdf8" stroke="#d8d2c5"/>
    <rect x="18" y="18" width="354" height="72" rx="18" fill="url(#hero)"/>
    <text x="36" y="62" fill="#f7f4e9" font-family="Microsoft YaHei UI" font-size="22" font-weight="900">证据化评估平台</text>
    <text x="36" y="104" fill="#1a6b5a" font-family="Cascadia Mono" font-size="12" font-weight="800">1-column stage, metric, gate cards</text>
  </g>
</svg>
